<?xml version="1.0" encoding="UTF-8"?>
<svg width="141px" height="81px" viewBox="0 0 141 81" version="1.1" xmlns="http://www.w3.org/2000/svg" xmlns:xlink="http://www.w3.org/1999/xlink">
    <title>Reesink EV Logo </title>
    <defs>
        <polygon id="path-1" points="4.66125619e-16 0 43.274 0 43.274 80.2039 4.66125619e-16 80.2039"></polygon>
        <polygon id="path-3" points="0 0 21.5349 0 21.5349 21.258 0 21.258"></polygon>
        <polygon id="path-5" points="0 0 32.248 0 32.248 33.9705 0 33.9705"></polygon>
        <polygon id="path-7" points="0 0 33.823 0 33.823 80.2036 0 80.2036"></polygon>
    </defs>
    <g id="Page-1" stroke="none" stroke-width="1" fill="none" fill-rule="evenodd">
        <g id="RE0001-Reesink-EV-Holding-Site-GOLF-Masthead" transform="translate(-30.000000, -30.000000)">
            <g id="Reesink-EV-Logo-" transform="translate(30.000000, 30.000000)">
                <g id="Group-21">
                    <g id="Group-3" transform="translate(0.000200, 0.000000)">
                        <mask id="mask-2" fill="white">
                            <use xlink:href="#path-1"></use>
                        </mask>
                        <g id="Clip-2"></g>
                        <path d="M4.66125619e-16,-0.0001 C17.809,-0.0001 32.247,13.2989 32.247,29.7029 C32.247,31.1539 32.124,32.5759 31.905,33.9709 C32.128,35.1479 32.247,36.3509 32.247,37.5749 C32.247,45.2189 27.752,52.0499 20.692,56.6029 C27.68,61.8059 32.613,69.3889 33.617,77.6269 C33.741,78.4789 33.824,79.3379 33.824,80.2039 L43.274,80.2039 C43.065,69.8159 36.461,60.1549 27.106,54.5539 C35.893,49.2499 41.704,40.1029 41.704,29.7029 C41.704,13.2989 26.781,-0.0001 4.66125619e-16,-0.0001" id="Fill-1" fill="#CCCCCC" mask="url(#mask-2)"></path>
                    </g>
                    <path d="M0.0002,59.4237 L0.0002,62.3977 L0.0002,62.4137 C12.2072,62.4137 20.5272,69.8427 22.0632,77.6227 C20.5272,68.3137 12.2072,59.4237 0.0002,59.4237" id="Fill-4" fill="#727272"></path>
                    <g id="Group-8" transform="translate(0.000000, 12.752400)">
                        <mask id="mask-4" fill="white">
                            <use xlink:href="#path-3"></use>
                        </mask>
                        <g id="Clip-7"></g>
                        <path d="M21.1179,21.258 C21.3929,19.863 21.5349,18.421 21.5349,16.95 C21.5349,11.9 19.8709,7.121 16.5479,3.517 C11.7099,1.286 6.0519,0 -0.0001,0 L-0.0001,8.247 C12.3839,8.247 19.4099,14.043 21.1179,21.258" id="Fill-6" fill="#727272" mask="url(#mask-4)"></path>
                    </g>
                    <path d="M17.6497,54.5543 C18.7027,55.1853 19.7137,55.8743 20.6917,56.6023 C27.7527,52.0503 32.2477,45.2193 32.2477,37.5753 C32.2477,36.3513 32.1287,35.1483 31.9047,33.9703 C30.5577,42.5763 25.2127,49.9893 17.6497,54.5543" id="Fill-9" fill="#727272"></path>
                    <path d="M20.6919,56.6027 C19.7229,57.2267 18.7099,57.8107 17.6499,58.3447 C26.2259,62.6357 32.4709,69.7797 33.6179,77.6267 C32.6129,69.3897 27.6809,61.8057 20.6919,56.6027" id="Fill-11" fill="#9D231F"></path>
                    <g id="Group-15">
                        <mask id="mask-6" fill="white">
                            <use xlink:href="#path-5"></use>
                        </mask>
                        <g id="Clip-14"></g>
                        <path d="M30.99,29.7025 C30.99,30.0235 30.983,30.3425 30.97,30.6605 C31.375,31.7365 31.692,32.8405 31.905,33.9705 C32.124,32.5755 32.248,31.1535 32.248,29.7025 C32.248,13.2985 17.81,-0.0005 0,-0.0005 L9.456,9.8685 C23.828,9.8685 30.99,19.2075 30.99,29.7025" id="Fill-13" fill="#9D231F" mask="url(#mask-6)"></path>
                    </g>
                    <g id="Group-18" transform="translate(0.000700, 0.000000)">
                        <mask id="mask-8" fill="white">
                            <use xlink:href="#path-7"></use>
                        </mask>
                        <g id="Clip-17"></g>
                        <path d="M33.617,77.6266 C32.47,69.7796 26.226,62.6356 17.649,58.3446 C18.709,57.8106 19.722,57.2266 20.691,56.6026 C19.713,55.8746 18.702,55.1856 17.649,54.5546 C25.212,49.9896 30.557,42.5766 31.904,33.9706 C31.691,32.8406 31.374,31.7366 30.969,30.6606 C30.982,30.3426 30.989,30.0236 30.989,29.7026 C30.989,19.2076 23.827,9.8686 9.456,9.8686 L0,-0.0004 L0,9.8686 C7.456,9.8686 12.967,12.3856 16.548,16.2696 C19.871,19.8736 21.534,24.6526 21.534,29.7026 C21.534,31.1726 21.392,32.6156 21.117,34.0106 C19.409,42.7026 12.384,49.5356 0,49.5356 L0,49.5556 L0,59.4236 C12.207,59.4236 20.526,68.3136 22.062,77.6236 C22.232,78.4826 22.322,79.3456 22.322,80.2036 L33.803,80.2036 L33.823,80.2036 C33.823,79.3376 33.74,78.4786 33.617,77.6266" id="Fill-16" fill="#E31F25" mask="url(#mask-8)"></path>
                    </g>
                    <path d="M60.3157,29.8507 L64.6527,37.0927 L62.9927,37.0927 L59.0087,30.0997 L55.3977,30.0997 L55.3977,37.0927 L54.0277,37.0927 L54.0277,21.5287 L59.0707,21.5287 C62.2037,21.5287 63.6357,22.8987 63.6357,25.7417 C63.6357,28.2737 62.4737,29.6017 60.3157,29.8507 M59.0707,22.7537 L55.3977,22.7537 L55.3977,28.9787 L58.9457,28.9787 C61.2077,28.9787 62.2247,28.0667 62.2247,25.8037 C62.2247,23.6247 61.2497,22.7537 59.0707,22.7537" id="Fill-19" fill="#727272"></path>
                </g>
                <polygon id="Fill-22" fill="#727272" points="77.2056 35.8065 77.1436 37.0935 67.5976 37.0935 67.5976 21.5295 76.7696 21.5295 76.8326 22.8155 68.9466 22.8155 68.9466 28.3565 75.7736 28.3565 75.7736 29.5185 68.9466 29.5185 68.9466 35.8065"></polygon>
                <polygon id="Fill-23" fill="#727272" points="90.3892 35.8065 90.3272 37.0935 80.7812 37.0935 80.7812 21.5295 89.9532 21.5295 90.0152 22.8155 82.1302 22.8155 82.1302 28.3565 88.9572 28.3565 88.9572 29.5185 82.1302 29.5185 82.1302 35.8065"></polygon>
                <path d="M97.4429,37.3837 C95.6579,37.3837 94.2059,36.9067 93.0229,36.1807 L93.2719,34.8937 C94.4749,35.6817 95.8039,36.0967 97.4429,36.0967 C99.9119,36.0967 101.1779,34.8937 101.1779,32.8807 C101.1779,28.7097 93.1889,30.5357 93.1889,25.4097 C93.1889,23.0647 94.6829,21.2807 98.0239,21.2807 C99.5389,21.2807 100.9079,21.5917 102.0079,22.1107 L101.7589,23.3347 C100.5759,22.8367 99.4349,22.5457 98.0859,22.5457 C95.5129,22.5457 94.4959,23.8537 94.4959,25.3267 C94.4959,29.2907 102.5059,27.4227 102.5059,32.7977 C102.5059,35.6407 100.7629,37.3837 97.4429,37.3837" id="Fill-24" fill="#727272"></path>
                <polygon id="Fill-26" fill="#727272" points="106.167 37.093 107.537 37.093 107.537 21.529 106.167 21.529"></polygon>
                <polygon id="Fill-27" fill="#727272" points="122.8296 37.0932 114.7776 25.0572 113.8646 23.6462 113.8236 23.6662 113.8436 25.3472 113.8436 37.0932 112.5986 37.0932 112.5986 21.5292 113.9476 21.5292 121.7296 33.2752 122.6426 34.6862 122.6836 34.6652 122.6426 33.0052 122.6216 21.5292 123.8466 21.5292 123.8466 37.0932"></polygon>
                <polygon id="Fill-28" fill="#727272" points="138.1419 21.5294 132.7879 28.3364 130.1729 28.3364 130.1729 21.5294 128.8049 21.5294 128.8049 37.0934 130.1729 37.0934 130.1729 29.5604 132.7679 29.5604 138.4119 37.0934 140.1969 37.0934 134.0339 28.8754 139.8439 21.5294"></polygon>
                <path d="M59.7748,58.9054 C61.2198,58.9054 62.5748,58.6344 63.4958,58.2374 L63.1168,55.5634 C62.1778,55.8714 61.2018,56.0164 60.2088,56.0164 C58.5818,56.0164 57.7868,55.5094 57.6418,54.1704 L63.6948,54.1704 C63.7488,53.7194 63.7848,53.1234 63.7848,52.6174 C63.7848,49.1284 62.0328,47.4674 59.0878,47.4674 C55.6178,47.4674 54.0278,49.5804 54.0278,53.1054 C54.0278,56.8464 55.8348,58.9054 59.7748,58.9054 L59.7748,58.9054 Z M57.5698,51.9854 C57.6788,50.6464 58.0578,50.2304 59.1058,50.2304 C60.0638,50.2304 60.5698,50.7194 60.6058,51.9854 L57.5698,51.9854 Z M64.5268,53.7184 L69.9308,53.7184 L69.9308,51.3174 L64.5268,51.3174 L64.5268,53.7184 Z M78.8228,45.1544 L76.6178,53.4844 L76.2918,54.8934 L76.2378,54.8934 L75.8948,53.4844 L73.7438,45.1544 L69.5868,45.1544 L74.0508,58.7064 L78.2618,58.7064 L82.7438,45.1544 L78.8228,45.1544 Z M87.4448,58.9054 C88.8898,58.9054 90.2438,58.6344 91.1658,58.2374 L90.7858,55.5634 C89.8468,55.8714 88.8718,56.0164 87.8778,56.0164 C86.2518,56.0164 85.4568,55.5094 85.3118,54.1704 L91.3638,54.1704 C91.4178,53.7194 91.4548,53.1234 91.4548,52.6174 C91.4548,49.1284 89.7028,47.4674 86.7578,47.4674 C83.2878,47.4674 81.6968,49.5804 81.6968,53.1054 C81.6968,56.8464 83.5048,58.9054 87.4448,58.9054 L87.4448,58.9054 Z M85.2398,51.9854 C85.3478,50.6464 85.7278,50.2304 86.7758,50.2304 C87.7338,50.2304 88.2398,50.7194 88.2758,51.9854 L85.2398,51.9854 Z M102.1718,58.7064 L102.1718,51.8024 C102.1718,49.0744 100.7808,47.4494 98.4688,47.4494 C97.6548,47.4494 96.7318,47.6304 95.9178,48.2444 L95.8638,48.2074 L95.8998,46.7624 L95.8998,44.5754 L92.4328,44.7384 L92.4328,58.7064 L95.8998,58.7064 L95.8998,51.0254 C96.1898,50.6644 96.7138,50.3934 97.3468,50.3934 C98.2698,50.3934 98.6858,50.8444 98.6858,51.8024 L98.6858,58.7064 L102.1718,58.7064 Z M107.2318,58.7064 L107.2318,47.5944 L103.6738,47.7544 L103.6738,58.7064 L107.2318,58.7064 Z M107.3398,45.4784 C107.3398,44.5934 106.7798,44.1244 105.4618,44.1244 C104.1608,44.1244 103.5648,44.5934 103.5648,45.4784 C103.5648,46.4714 104.1608,46.8324 105.4618,46.8324 C106.7798,46.8324 107.3398,46.3814 107.3398,45.4784 L107.3398,45.4784 Z M116.2858,47.9194 C115.6178,47.6664 114.5508,47.4854 113.6658,47.4854 C109.9798,47.4854 108.4088,49.6164 108.4088,53.2494 C108.4088,57.0094 110.2148,58.9234 113.5928,58.9234 C114.8038,58.9234 115.7618,58.7064 116.3948,58.3454 L116.1598,55.7444 C115.6358,55.9434 115.0208,56.0704 114.3518,56.0704 C112.8878,56.0704 112.0208,55.2384 112.0208,53.2494 C112.0208,51.1884 112.5628,50.4654 114.4248,50.4654 C114.9668,50.4654 115.5808,50.5914 116.1048,50.7364 L116.2858,47.9194 Z M120.8948,58.7064 L120.8948,44.5754 L117.3728,44.7384 L117.3728,58.7064 L120.8948,58.7064 Z M127.6918,58.9054 C129.1378,58.9054 130.4918,58.6344 131.4128,58.2374 L131.0338,55.5634 C130.0948,55.8714 129.1198,56.0164 128.1258,56.0164 C126.4988,56.0164 125.7038,55.5094 125.5598,54.1704 L131.6118,54.1704 C131.6658,53.7194 131.7018,53.1234 131.7018,52.6174 C131.7018,49.1284 129.9498,47.4674 127.0048,47.4674 C123.5348,47.4674 121.9448,49.5804 121.9448,53.1054 C121.9448,56.8464 123.7518,58.9054 127.6918,58.9054 L127.6918,58.9054 Z M125.4868,51.9854 C125.5958,50.6464 125.9748,50.2304 127.0238,50.2304 C127.9808,50.2304 128.4868,50.7194 128.5238,51.9854 L125.4868,51.9854 Z M140.1958,55.1304 C140.1958,51.3514 135.4788,52.2194 135.4788,50.8994 C135.4788,50.5014 135.8048,50.2664 136.4928,50.2664 C137.2888,50.2664 138.5888,50.4294 139.5098,50.7904 L139.7628,48.0814 C138.8238,47.7024 137.7038,47.4674 136.5468,47.4674 C133.5468,47.4674 132.1558,49.0024 132.1558,51.0444 C132.1558,54.9854 136.9818,54.0454 136.9818,55.4374 C136.9818,55.8894 136.6198,56.1964 135.7688,56.1964 C134.8828,56.1964 133.5648,55.9794 132.6258,55.4914 L132.2828,58.2374 C133.2578,58.7064 134.4318,58.9234 135.7868,58.9234 C138.9318,58.9234 140.1958,57.3884 140.1958,55.1304 L140.1958,55.1304 Z" id="Fill-29" fill="#727272"></path>
            </g>
        </g>
    </g>
</svg>