<?xml version="1.0" encoding="UTF-8"?>
<svg width="152px" height="88px" viewBox="0 0 152 88" version="1.1" xmlns="http://www.w3.org/2000/svg" xmlns:xlink="http://www.w3.org/1999/xlink">
    <!-- Generator: sketchtool 62 (101010) - https://sketch.com -->
    <title>E20A0B5B-3B3D-4F52-AF43-BC67C4B4A341</title>
    <desc>Created with sketchtool.</desc>
    <defs>
        <polygon id="path-1" points="0 0.107031448 46.6290504 0.107031448 46.6290504 87.037931 0 87.037931"/>
        <polygon id="path-3" points="0 0.107031448 34.7475036 0.107031448 34.7475036 36.9270121 0 36.9270121"/>
        <polygon id="path-5" points="0 0.107494069 36.4459624 0.107494069 36.4459624 87.037931 0 87.037931"/>
        <polygon id="path-7" points="0.382685043 0.134236444 9.49264261 0.134236444 9.49264261 10.7860053 0.382685043 10.7860053"/>
    </defs>
    <g id="Page-1" stroke="none" stroke-width="1" fill="none" fill-rule="evenodd">
        <g id="Mast-4---Dealers" transform="translate(-389.000000, -34.000000)">
            <g id="Group-51" transform="translate(389.000000, 34.000000)">
                <g id="Group-20" transform="translate(0.000000, 0.208485)">
                    <g id="Group-3">
                        <mask id="mask-2" fill="white">
                            <use xlink:href="#path-1"/>
                        </mask>
                        <g id="Clip-2"/>
                        <path d="M0,0.107031448 C19.1906383,0.107031448 34.7479635,14.5207501 34.7479635,32.3008052 C34.7479635,33.8737156 34.6145887,35.4157846 34.3785,36.9270121 C34.6191878,38.2038452 34.7479635,39.5068935 34.7479635,40.8346149 C34.7479635,49.1186094 29.9035461,56.5220825 22.2965843,61.4567032 C29.8268939,67.0975914 35.1404226,75.316819 36.2242843,84.2438563 C36.3561261,85.1675556 36.4465757,86.0989652 36.4465757,87.0380852 L46.6290504,87.0380852 C46.403693,75.7794397 39.2888383,65.3072494 29.2075443,59.2376659 C38.6756209,53.4872908 44.9365704,43.5733294 44.9365704,32.3008052 C44.9365704,14.5207501 28.8580104,0.107031448 0,0.107031448" id="Fill-1" fill="#A7A7A7" mask="url(#mask-2)"/>
                    </g>
                    <path d="M0,64.5149343 L0,67.7378585 L0,67.7548212 C13.153513,67.7548212 22.1187513,75.8075054 23.7729052,84.2410806 C22.1187513,74.1513233 13.153513,64.5149343 0,64.5149343" id="Fill-4" fill="#6F6F6E"/>
                    <path d="M22.7549643,36.9700359 C23.0508417,35.4572662 23.2041461,33.8951503 23.2041461,32.300651 C23.2041461,26.8278483 21.4120183,21.6464966 17.8308287,17.7419779 C12.6184809,15.3224717 6.52003391,13.9299834 0,13.9299834 L0,22.8678152 C13.3436104,22.8678152 20.9137791,29.1502041 22.7549643,36.9700359" id="Fill-6" fill="#6F6F6E"/>
                    <path d="M19.0178643,59.2370491 C20.1523164,59.9201857 21.2423103,60.6680891 22.2955112,61.4576284 C29.904006,56.5230077 34.7468903,49.1179926 34.7468903,40.8339981 C34.7468903,39.5062767 34.6181147,38.2032284 34.3789599,36.9263953 C32.9271677,46.2543705 27.1659903,54.2900919 19.0178643,59.2370491" id="Fill-8" fill="#6F6F6E"/>
                    <path d="M22.2959711,61.4571658 C21.2519685,62.132592 20.1604416,62.7663823 19.0183242,63.3446582 C28.2595103,67.9955382 34.9880381,75.7398086 36.2236711,84.2443189 C35.1413424,75.3157396 29.8262807,67.096512 22.2959711,61.4571658" id="Fill-10" fill="#9C1007"/>
                    <g id="Group-14">
                        <mask id="mask-4" fill="white">
                            <use xlink:href="#path-3"/>
                        </mask>
                        <g id="Clip-13"/>
                        <path d="M33.3922931,32.3008052 C33.3922931,32.6493128 33.3846279,32.9947363 33.3708305,33.3401597 C33.8077479,34.5059639 34.1480836,35.7026094 34.3780401,36.9270121 C34.6141288,35.4157846 34.7475036,33.8737156 34.7475036,32.3008052 C34.7475036,14.5207501 19.1901783,0.107031448 -0.000459913043,0.107031448 L10.1896801,10.8028218 C25.6749523,10.8028218 33.3922931,20.9265046 33.3922931,32.3008052" id="Fill-12" fill="#9C1007" mask="url(#mask-4)"/>
                    </g>
                    <g id="Group-17">
                        <mask id="mask-6" fill="white">
                            <use xlink:href="#path-5"/>
                        </mask>
                        <g id="Clip-16"/>
                        <path d="M36.2236711,84.2443189 C34.9880381,75.7398086 28.2595103,67.9955382 19.0183242,63.3462003 C20.1604416,62.7663823 21.2519685,62.132592 22.2959711,61.4571658 C21.2412372,60.6676265 20.1527763,59.9212651 19.0183242,59.2365865 C27.1664503,54.2896292 32.9260946,46.2539079 34.3778868,36.9274748 C34.1479303,35.7015299 33.8075946,34.5048844 33.3706772,33.3390803 C33.3844746,32.9951989 33.3921398,32.6482334 33.3921398,32.3012679 C33.3921398,20.9254251 25.674799,10.8032844 10.1895268,10.8032844 L-0.000613217391,0.107494069 L-0.000613217391,10.8032844 C8.03406765,10.8032844 13.9730781,13.5312044 17.8317485,17.7410527 C21.411405,21.6471134 23.2035329,26.826923 23.2035329,32.3012679 C23.2035329,33.8942251 23.0517616,35.457883 22.7543511,36.9706527 C20.914699,46.391152 13.3445303,53.7977092 -0.000613217391,53.7977092 L-0.000613217391,53.8192982 L-0.000613217391,64.5150886 C13.1544329,64.5150886 22.1181381,74.1514775 23.773825,84.2412348 C23.9562572,85.1726444 24.052839,86.1071382 24.052839,87.0385479 L36.4244998,87.0385479 L36.4459624,87.0385479 C36.4459624,86.0994279 36.3570459,85.1680182 36.2236711,84.2443189" id="Fill-15" fill="#E20714" mask="url(#mask-6)"/>
                    </g>
                    <path d="M64.9915386,32.4218577 L69.6642551,40.2725308 L67.8767264,40.2725308 L63.5826717,32.6917197 L59.6918073,32.6917197 L59.6918073,40.2725308 L58.2154864,40.2725308 L58.2154864,23.4022963 L63.6501256,23.4022963 C67.0258873,23.4022963 68.5696621,24.8873087 68.5696621,27.9683625 C68.5696621,30.7132452 67.3171656,32.1519956 64.9915386,32.4218577 M63.6501256,24.7300177 L59.6918073,24.7300177 L59.6918073,31.4765694 L63.5152177,31.4765694 C65.9527569,31.4765694 67.048883,30.4881032 67.048883,28.0362135 C67.048883,25.6737639 65.9972151,24.7300177 63.6501256,24.7300177" id="Fill-18" fill="#6F6F6E"/>
                </g>
                <polygon id="Fill-21" fill="#6F6F6E" points="83.42 39.2070752 83.3527588 40.6284848 73.1 40.6284848 73.1 23.4284848 82.9523678 23.4284848 83.0180809 24.8498945 74.5487428 24.8498945 74.5487428 30.9742203 81.8810928 30.9742203 81.8810928 32.2572626 74.5487428 32.2572626 74.5487428 39.2070752"/>
                <polygon id="Fill-22" fill="#6F6F6E" points="98.04 39.2070752 97.9727588 40.6284848 87.72 40.6284848 87.72 23.4284848 97.5708396 23.4284848 97.6380809 24.8498945 89.1687428 24.8498945 89.1687428 30.9742203 96.5026211 30.9742203 96.5026211 32.2572626 89.1687428 32.2572626 89.1687428 39.2070752"/>
                <path d="M105.430117,40.6284848 C103.487183,40.6284848 101.908065,40.1194293 100.62,39.3429296 L100.890927,37.9692393 C102.200666,38.8110805 103.646643,39.2547946 105.430117,39.2547946 C108.117714,39.2547946 109.494023,37.9692393 109.494023,35.8190494 C109.494023,31.3636735 100.801134,33.3147999 100.801134,27.8397933 C100.801134,25.3355438 102.426697,23.4284848 106.061764,23.4284848 C107.710549,23.4284848 109.201422,23.7612704 110.398146,24.3159131 L110.127219,25.6227423 C108.839154,25.0908932 107.597534,24.7809011 106.129883,24.7809011 C103.329271,24.7809011 102.22234,26.1773849 102.22234,27.7516583 C102.22234,31.9836576 110.94,29.9899832 110.94,35.7293948 C110.94,38.767013 109.04351,40.6284848 105.430117,40.6284848" id="Fill-23" fill="#6F6F6E"/>
                <polygon id="Fill-25" fill="#6F6F6E" points="114.41182 40.6284848 116.06818 40.6284848 116.06818 23.4284848 114.41182 23.4284848"/>
                <polygon id="Fill-26" fill="#6F6F6E" points="133.071131 40.6284848 124.453074 27.3263549 123.475376 25.7665779 123.431212 25.7901632 123.452532 27.6471154 123.452532 40.6284848 122.12 40.6284848 122.12 23.4284848 123.563704 23.4284848 131.893934 36.4082819 132.871632 37.9680588 132.915796 37.9444735 132.871632 36.1111067 132.848788 23.4284848 134.16 23.4284848 134.16 40.6284848"/>
                <polygon id="Fill-27" fill="#6F6F6E" points="149.188951 23.4284848 143.531294 30.9490626 140.767867 30.9490626 140.767867 23.4284848 139.32 23.4284848 139.32 40.6284848 140.767867 40.6284848 140.767867 32.3044333 143.508741 32.3044333 149.474615 40.6284848 151.36 40.6284848 144.846853 31.5465578 150.987133 23.4284848"/>
                <path d="M65.9570634,59.9091972 L61.9771601,59.9091972 L61.4112749,62.1284848 L57.62,62.1284848 L61.8914199,49.2284848 L66.1799879,49.2284848 L70.52,62.1284848 L66.5229486,62.1284848 L65.9570634,59.9091972 Z M63.6405196,53.4248139 L62.7145257,57.0366264 L65.2368459,57.0366264 L64.328,53.4420056 L64.0177764,52.0666724 L63.9663323,52.0666724 L63.6405196,53.4248139 Z" id="Fill-28" fill="#6F6F6E"/>
                <g id="Group-39" transform="translate(70.520000, 48.368485)" fill="#6F6F6E">
                    <path d="M3.68859733,9.389953 C3.58769067,9.472728 3.52041956,9.605168 3.52041956,9.721053 C3.52041956,9.936268 3.68859733,10.068708 4.05858844,10.085263 L6.48187733,10.201148 C8.85471289,10.317033 9.830144,11.229063 9.830144,12.851453 C9.830144,14.922333 8.33336178,16.213623 4.89947733,16.213623 C1.85393067,16.213623 0.575779556,15.071328 0.575779556,13.563318 C0.575779556,12.983893 0.811228444,12.454133 1.28212622,12.040258 C0.844864,11.709158 0.525326222,11.212508 0.525326222,10.532248 C0.525326222,9.836938 0.878499556,9.158183 1.78665956,8.694643 C1.09713067,8.214548 0.676686222,7.451513 0.676686222,6.325773 C0.676686222,4.503218 1.80347733,3.129153 4.79857067,3.129153 C5.69144178,3.129153 6.63323733,3.261593 7.39003733,3.642358 L9.15743289,3.129153 L9.830144,4.587498 L8.80425956,5.415248 C8.87153067,5.680128 8.90516622,5.994673 8.90516622,6.325773 C8.90516622,8.297323 7.69275733,9.456173 4.81538844,9.456173 C4.42857956,9.456173 4.05858844,9.439618 3.68859733,9.389953 L3.68859733,9.389953 Z M3.53723733,12.619683 C3.38587733,12.801788 3.30178844,13.000448 3.30178844,13.165998 C3.30178844,13.695758 3.73905067,13.927528 4.83220622,13.927528 C6.54914844,13.927528 6.95277511,13.695758 6.95277511,13.298438 C6.95277511,12.950783 6.75096178,12.818343 5.91007289,12.768678 L3.53723733,12.619683 Z M3.87359289,6.391993 C3.87359289,7.153523 4.19313067,7.368738 4.76493511,7.368738 C5.55689956,7.368738 5.79234844,7.136968 5.79234844,6.391993 C5.79234844,5.663573 5.54008178,5.415248 4.83220622,5.415248 C4.10904178,5.415248 3.87359289,5.680128 3.87359289,6.391993 L3.87359289,6.391993 Z" id="Fill-29"/>
                    <path d="M10.7694933,13.4313295 L10.7694933,3.3779295 L13.3441422,3.2620445 L13.6300444,4.7188845 L13.6804978,4.7188845 C14.3195733,3.6262545 15.2613689,3.1296045 16.3224178,3.1296045 C16.8101333,3.1296045 17.21376,3.1958245 17.4828444,3.2951545 L17.2978489,6.3096695 C16.9614933,6.2103395 16.5410489,6.1441195 16.1037867,6.1441195 C14.8577422,6.1441195 14.0168533,6.9387595 14.0168533,8.3790445 L14.0168533,13.4313295 L10.7694933,13.4313295 Z" id="Fill-31"/>
                    <path d="M20.1808747,2.5495775 C18.9699947,2.5495775 18.4134791,2.2184775 18.4134791,1.3079525 C18.4134791,0.4952525 18.9699947,0.0648225 20.1808747,0.0648225 C21.4085724,0.0648225 21.9314524,0.4952525 21.9314524,1.3079525 C21.9314524,2.1357025 21.4085724,2.5495775 20.1808747,2.5495775 L20.1808747,2.5495775 Z M18.5143858,13.4307275 L18.5143858,3.3938825 L21.8305458,3.2448875 L21.8305458,13.4307275 L18.5143858,13.4307275 Z" id="Fill-33"/>
                    <path d="M30.248608,6.127113 C29.7608924,5.994673 29.189088,5.878788 28.6845547,5.878788 C26.9507947,5.878788 26.4462613,6.540988 26.4462613,8.429763 C26.4462613,10.250813 27.2535147,11.013848 28.6157547,11.013848 C29.2395413,11.013848 29.8113458,10.896458 30.2990613,10.714353 L30.5176924,13.099778 C29.9290702,13.430878 29.037728,13.629538 27.909408,13.629538 C24.7629547,13.629538 23.0811769,11.874708 23.0811769,8.429763 C23.0811769,5.100703 24.5443236,3.145708 27.9766791,3.145708 C28.8022791,3.145708 29.794528,3.311258 30.4167858,3.543028 L30.248608,6.127113 Z" id="Fill-35"/>
                    <path d="M40.5498027,9.7377585 C40.5498027,12.2887335 39.0698382,13.6131335 36.0074738,13.6131335 C32.9451093,13.6131335 31.4804338,12.2390685 31.4804338,9.7377585 L31.4804338,3.2948535 L34.710976,3.2948535 L34.710976,9.6880935 C34.710976,10.4992885 35.0977849,10.8966085 36.0242916,10.8966085 C36.9156338,10.8966085 37.3024427,10.5323985 37.3024427,9.6880935 L37.3024427,3.2948535 L40.5498027,3.2948535 L40.5498027,9.7377585 Z" id="Fill-37"/>
                </g>
                <polygon id="Fill-40" fill="#6F6F6E" points="112.66 62.1284848 112.66 49.3768813 116.1 49.2284848 116.1 62.1284848"/>
                <g id="Group-50" transform="translate(116.960000, 49.228485)">
                    <path d="M4.82525435,5.03080889 L4.82525435,9.75813333 C4.82525435,10.4155556 5.14566043,10.7014578 5.88765348,10.7014578 C6.14060565,10.7014578 6.49627174,10.6510044 6.68177,10.5837333 L6.85040478,12.8373156 C6.47787522,13.0223111 5.70215522,13.1568533 4.89270826,13.1568533 C2.63146913,13.1568533 1.56907,11.8618844 1.56907,9.84222222 L1.56907,5.03080889 L0.590988261,5.03080889 L0.590988261,2.69160889 L1.73770478,2.69160889 L2.26047261,0.505297778 L4.82525435,0.286666667 L4.82525435,2.69160889 L6.96844913,2.69160889 L6.96844913,5.03080889 L4.82525435,5.03080889 Z" id="Fill-41" fill="#6F6F6E"/>
                    <path d="M16.968645,9.237088 C16.968645,11.8285547 15.484659,13.1739769 12.4139729,13.1739769 C9.34328678,13.1739769 7.87463113,11.7781013 7.87463113,9.237088 L7.87463113,2.69191467 L11.113952,2.69191467 L11.113952,9.18663467 C11.113952,10.0107058 11.501812,10.4143324 12.4308363,10.4143324 C13.3246007,10.4143324 13.7124607,10.0443413 13.7124607,9.18663467 L13.7124607,2.69191467 L16.968645,2.69191467 L16.968645,9.237088 Z" id="Fill-43" fill="#6F6F6E"/>
                    <path d="M18.4889643,12.9892871 L18.4889643,2.77630933 L21.0706095,2.65858489 L21.3572886,4.13854933 L21.407879,4.13854933 C22.0486912,3.028576 22.993046,2.52404267 24.0569782,2.52404267 C24.546019,2.52404267 24.9507425,2.59131378 25.2205582,2.69222044 L25.0350599,5.75458489 C24.6977903,5.65367822 24.2762034,5.58640711 23.837753,5.58640711 C22.5883225,5.58640711 21.7451486,6.39366044 21.7451486,7.85680711 L21.7451486,12.9892871 L18.4889643,12.9892871 Z" id="Fill-45" fill="#6F6F6E"/>
                    <g id="Group-49" transform="translate(25.388696, 2.388889)">
                        <mask id="mask-8" fill="white">
                            <use xlink:href="#path-7"/>
                        </mask>
                        <g id="Clip-48"/>
                        <path d="M0.382685043,5.38444089 C0.382685043,2.10344533 1.86667113,0.134236444 5.105992,0.134236444 C7.856272,0.134236444 9.49356243,1.68300089 9.49356243,4.93036089 C9.49356243,5.40125867 9.45983548,5.95624533 9.40924504,6.37668978 L3.75691374,6.37668978 C3.89182157,7.62273422 4.63381461,8.093632 6.1530607,8.093632 C7.080552,8.093632 7.99117983,7.95908978 8.86961374,7.67318756 L9.22374678,10.1622187 C8.36217635,10.5337387 7.09741548,10.7860053 5.74833722,10.7860053 C2.07056591,10.7860053 0.382685043,8.86724978 0.382685043,5.38444089 L0.382685043,5.38444089 Z M6.52405722,4.34173867 C6.49033026,3.16296533 6.01815287,2.70888533 5.12285548,2.70888533 C4.14477374,2.70888533 3.7906407,3.09569422 3.68945983,4.34173867 L6.52405722,4.34173867 Z" id="Fill-47" fill="#6F6F6E" mask="url(#mask-8)"/>
                    </g>
                </g>
            </g>
        </g>
    </g>
</svg>